<svg width="50" height="50" viewBox="0 0 50 50" fill="none" xmlns="http://www.w3.org/2000/svg">
<path fill-rule="evenodd" clip-rule="evenodd" d="M25 50C38.8075 50 50 38.8075 50 25C50 11.1925 38.8075 0 25 0C11.1925 0 0 11.1925 0 25C0 38.8075 11.1925 50 25 50ZM39.885 26.875H32.2625C31.9214 28.1942 31.2274 29.3955 30.255 30.35L34.065 36.95C35.6572 35.7429 36.9922 34.2299 37.9917 32.4998C38.9911 30.7697 39.6348 28.8573 39.885 26.875ZM30.82 38.83L27.0075 32.23C25.694 32.5949 24.306 32.5949 22.9925 32.23L19.18 38.83C21.0227 39.6038 23.0014 40.0016 25 40C27.0625 40 29.03 39.5825 30.82 38.83ZM15.935 36.9525L19.745 30.3525C18.7713 29.3976 18.0764 28.1954 17.735 26.875H10.115C10.3652 28.8573 11.0089 30.7697 12.0083 32.4998C13.0078 34.2299 14.3428 35.7454 15.935 36.9525ZM39.885 23.1225H32.2625C31.9214 21.8033 31.2274 20.602 30.255 19.6475L34.065 13.0475C35.6572 14.2546 36.9922 15.7676 37.9917 17.4977C38.9911 19.2278 39.6348 21.1402 39.885 23.1225ZM30.82 11.1675C28.9771 10.3945 26.9984 9.99759 25 10C22.9375 10 20.97 10.4175 19.18 11.17L22.9925 17.77C24.306 17.4051 25.694 17.4051 27.0075 17.77L30.82 11.1675ZM19.745 19.65L15.935 13.05C14.3428 14.2571 13.0078 15.7701 12.0083 17.5002C11.0089 19.2303 10.3652 21.1427 10.115 23.125H17.7375C18.0825 21.7875 18.7875 20.5925 19.745 19.65Z" fill="#A42127"/>
</svg>
